<svg width="60" height="61" viewBox="0 0 60 61" fill="none" xmlns="http://www.w3.org/2000/svg">
<g id="category_svgrepo.com" clip-path="url(#clip0_78_62)">
<g id="Layer 2">
<g id="icons Q2">
<path id="Vector" d="M30 10.125L36.625 20.5H23.25L30 10.125ZM30 2.99999C29.5705 3.01842 29.1522 3.14204 28.7816 3.36C28.4111 3.57795 28.0998 3.88357 27.875 4.24999L16.5 21.75C16.3118 22.1398 16.2141 22.5671 16.2141 23C16.2141 23.4329 16.3118 23.8602 16.5 24.25C16.7059 24.6329 17.0129 24.9519 17.3876 25.1723C17.7623 25.3927 18.1903 25.5061 18.625 25.5H41.25C41.6795 25.4816 42.0979 25.3579 42.4684 25.14C42.8389 24.922 43.1502 24.6164 43.375 24.25C43.6222 23.88 43.7542 23.445 43.7542 23C43.7542 22.555 43.6222 22.12 43.375 21.75L32.125 4.24999C31.9191 3.86711 31.6121 3.54808 31.2374 3.32766C30.8627 3.10725 30.4347 2.99391 30 2.99999Z" fill="white"/>
<path id="Vector_2" d="M53.75 54.25H36.25C35.587 54.25 34.9511 53.9866 34.4822 53.5178C34.0134 53.0489 33.75 52.413 33.75 51.75V34.25C33.75 33.587 34.0134 32.9511 34.4822 32.4822C34.9511 32.0134 35.587 31.75 36.25 31.75H53.75C54.413 31.75 55.0489 32.0134 55.5178 32.4822C55.9866 32.9511 56.25 33.587 56.25 34.25V51.75C56.25 52.413 55.9866 53.0489 55.5178 53.5178C55.0489 53.9866 54.413 54.25 53.75 54.25ZM38.75 49.25H51.25V36.75H38.75V49.25Z" fill="white"/>
<path id="Vector_3" d="M16.25 35.5C17.7334 35.5 19.1834 35.9399 20.4168 36.764C21.6502 37.5881 22.6114 38.7594 23.1791 40.1299C23.7468 41.5003 23.8953 43.0083 23.6059 44.4632C23.3165 45.918 22.6022 47.2544 21.5533 48.3033C20.5044 49.3522 19.168 50.0665 17.7132 50.3559C16.2583 50.6453 14.7503 50.4968 13.3799 49.9291C12.0094 49.3614 10.8381 48.4001 10.014 47.1668C9.18987 45.9334 8.75001 44.4834 8.75001 43C8.75001 41.0109 9.54018 39.1032 10.9467 37.6967C12.3532 36.2902 14.2609 35.5 16.25 35.5ZM16.25 30.5C13.7777 30.5 11.361 31.2331 9.30538 32.6066C7.24976 33.9801 5.64761 35.9324 4.70151 38.2165C3.75542 40.5005 3.50787 43.0139 3.99019 45.4386C4.4725 47.8634 5.66301 50.0907 7.41117 51.8388C9.15933 53.587 11.3866 54.7775 13.8114 55.2598C16.2361 55.7421 18.7495 55.4946 21.0335 54.5485C23.3176 53.6024 25.2699 52.0002 26.6434 49.9446C28.0169 47.889 28.75 45.4723 28.75 43C28.75 41.3585 28.4267 39.733 27.7985 38.2165C27.1703 36.6999 26.2496 35.3219 25.0888 34.1612C23.9281 33.0004 22.5501 32.0797 21.0335 31.4515C19.517 30.8233 17.8915 30.5 16.25 30.5Z" fill="white"/>
</g>
</g>
</g>
<defs>
<clipPath id="clip0_78_62">
<rect width="60" height="60" fill="white" transform="translate(0 0.5)"/>
</clipPath>
</defs>
</svg>
