<svg width="60" height="60" viewBox="0 0 60 60" fill="none" xmlns="http://www.w3.org/2000/svg">
<g id="doc_svgrepo.com">
<path id="Vector" d="M10 10C10 8.6193 11.1193 7.5 12.5 7.5H35H36.4645C37.1275 7.5 37.7635 7.7634 38.2323 8.23223L49.2677 19.2678C49.7365 19.7366 50 20.3725 50 21.0355V50C50 51.3807 48.8807 52.5 47.5 52.5H12.5C11.1193 52.5 10 51.3807 10 50V10Z" stroke="white" stroke-width="5" stroke-linecap="round"/>
<path id="Vector_2" d="M50 20H37.5V7.5" stroke="white" stroke-width="5" stroke-linecap="round" stroke-linejoin="round"/>
<path id="Vector_3" d="M18.75 32.5H17.5V42.5H18.75C21.5114 42.5 23.75 40.2615 23.75 37.5C23.75 34.7385 21.5114 32.5 18.75 32.5Z" stroke="white" stroke-width="3.75" stroke-linecap="round" stroke-linejoin="round"/>
<path id="Vector_4" d="M43.75 32.5H42.5C41.1193 32.5 40 33.6193 40 35V40C40 41.3807 41.1193 42.5 42.5 42.5H43.75" stroke="white" stroke-width="3.75" stroke-linecap="round" stroke-linejoin="round"/>
<path id="Vector_5" d="M28.75 35C28.75 33.6193 29.8693 32.5 31.25 32.5H32.5C33.8807 32.5 35 33.6193 35 35V40C35 41.3807 33.8807 42.5 32.5 42.5H31.25C29.8693 42.5 28.75 41.3807 28.75 40V35Z" stroke="white" stroke-width="3.75" stroke-linecap="round" stroke-linejoin="round"/>
</g>
</svg>
