<svg width="60" height="61" viewBox="0 0 60 61" fill="none" xmlns="http://www.w3.org/2000/svg">
<g id="save_svgrepo.com">
<path id="Vector" d="M35.04 8.87939V17.6094H39.6113L30.4706 28.625L21.33 17.6094H26.1356V8.87939H35.0419H35.04ZM42.7744 23L48.1069 31.4375C48.3994 32.1406 48.7519 33.4888 48.7519 34.3081V50.5381C48.7519 51.4175 48.0487 52.0625 47.2275 52.0625H13.77C12.8906 52.0625 12.1875 51.4175 12.1875 50.5381V34.3081C12.1875 33.4869 12.48 32.1406 12.7744 31.4375L18.1069 23C18.3994 22.2388 19.455 21.5938 20.2163 21.5938H22.6181L25.08 24.5825H20.1581L15.4125 33.2544C15.3544 33.2544 15.3544 33.3125 15.3544 33.3725C15.3544 33.4906 15.3544 33.5488 15.2962 33.6069H45.5887V33.3725C45.5887 33.3144 45.5306 33.2544 45.5306 33.1963L40.785 24.5825H35.8631L38.325 21.5938H40.6687C41.49 21.5938 42.4856 22.2388 42.7781 23H42.7744ZM26.1919 39.9331H34.8056C35.5669 39.9331 36.27 39.23 36.27 38.4088C36.27 37.6475 35.5669 36.9444 34.8056 36.9444H26.1919C25.3706 36.9444 24.6675 37.6475 24.6675 38.4088C24.6675 39.23 25.3706 39.9331 26.1919 39.9331Z" fill="white"/>
</g>
</svg>
