<svg width="33" height="33" viewBox="0 0 33 33" fill="none" xmlns="http://www.w3.org/2000/svg">
<g id="search_svgrepo.com" clip-path="url(#clip0_78_50)">
<path id="Vector" fill-rule="evenodd" clip-rule="evenodd" d="M24.8057 20.46L33 28.7719L28.875 33L20.4703 24.7995C18.3505 26.1186 15.903 26.8161 13.4062 26.8125C6.00188 26.8125 0 20.7962 0 13.4062C0 6.00188 6.01631 0 13.4062 0C20.8106 0 26.8125 6.01631 26.8125 13.4062C26.8162 15.8989 26.121 18.3426 24.8057 20.46ZM4.11881 13.3073C4.11881 18.4223 8.27269 22.5885 13.4001 22.5885C18.5151 22.5885 22.6813 18.4326 22.6813 13.3073C22.6813 8.19225 18.5254 4.026 13.4001 4.026C8.28506 4.026 4.11881 8.17988 4.11881 13.3073Z" fill="white"/>
</g>
<defs>
<clipPath id="clip0_78_50">
<rect width="33" height="33" fill="white"/>
</clipPath>
</defs>
</svg>
