<svg width="63" height="83" viewBox="0 0 63 83" fill="none" xmlns="http://www.w3.org/2000/svg">
<path fill-rule="evenodd" clip-rule="evenodd" d="M22.2584 49.9339C30.755 46.4053 34.003 44.8746 34.565 44.5502L35.9136 43.3827C36.2695 42.9287 36.6329 41.839 35.2393 41.1125C33.8457 40.386 29.0392 38.5612 26.8101 37.7396L21.4717 35.0802C20.5351 34.3235 19.1115 32.356 20.9097 30.5398C22.7079 28.7236 30.7625 26.7129 34.565 25.9345L29.8446 27.8804L27.4845 28.9831C26.6041 29.3939 24.8433 30.449 24.8433 31.383C24.8433 32.5506 26.2482 33.783 28.0464 34.4316C29.485 34.9505 37.0375 37.7612 40.634 39.1017L42.8817 40.5936C44.0056 41.2422 45.8601 43.0324 44.2866 45.0043C42.7132 46.9761 38.536 49.1123 36.6442 49.9339H53.7273L29.8446 2L5.7934 49.9339H22.2584ZM29.8446 6.21611L20.4602 24.8318L25.9672 19.3833L29.2265 21.0698L31.5867 16.8537L35.8012 18.2807L29.8446 6.21611Z" fill="black" stroke="black"/>
<path d="M18.552 71.224L24.216 83H22.152L21.144 80.696H15.752L14.744 83H12.744L18.376 71.224H18.552ZM17.752 76.232L16.472 79.08H20.44L19.176 76.248L18.488 74.632H18.456L17.752 76.232ZM25.2011 71.24H28.0331C30.4011 71.24 32.0545 71.8 32.9931 72.92C33.9425 74.04 34.4171 75.3733 34.4171 76.92C34.4171 77.9973 34.2145 78.9947 33.8091 79.912C33.4038 80.8187 32.7318 81.56 31.7931 82.136C30.8651 82.712 29.6438 83 28.1291 83H25.2011V71.24ZM28.3211 81.416C29.7931 81.416 30.8598 81 31.5211 80.168C32.1931 79.3253 32.5291 78.2693 32.5291 77C32.5291 75.7627 32.1931 74.7547 31.5211 73.976C30.8491 73.1973 29.7825 72.808 28.3211 72.808H26.9931V81.416H28.3211ZM39.2408 77.512L38.5048 75.848L38.1688 77.512L37.0807 83H35.3048L37.7368 71.24H37.9288L41.1608 77.592L42.1208 79.72L43.0808 77.592L46.2488 71.24H46.4248L48.9528 83H47.1928L46.0088 77.512L45.6568 75.848L45.0168 77.512L42.1688 83H42.0728L39.2408 77.512Z" fill="black"/>
<path d="M1.248 54.24H3.84C5.30133 54.24 6.368 54.5547 7.04 55.184C7.72267 55.8027 8.064 56.656 8.064 57.744C8.064 59.0027 7.696 59.968 6.96 60.64C6.224 61.312 5.13067 61.648 3.68 61.648H3.056V66H1.248V54.24ZM3.728 60.064C4.66667 60.064 5.32267 59.856 5.696 59.44C6.06933 59.024 6.256 58.5227 6.256 57.936C6.256 57.3067 6.07467 56.7947 5.712 56.4C5.34933 56.0053 4.74133 55.808 3.888 55.808H3.056V60.064H3.728ZM9.57238 58.656H11.3004V60.096C11.471 59.6053 11.7484 59.2107 12.1324 58.912C12.5164 58.6133 12.9537 58.464 13.4444 58.464C13.7857 58.464 14.0204 58.496 14.1484 58.56L13.9084 60.304C13.8124 60.24 13.6044 60.208 13.2844 60.208C12.783 60.208 12.3244 60.368 11.9084 60.688C11.503 61.008 11.3004 61.52 11.3004 62.224V66H9.57238V58.656ZM18.7944 66.16C18.037 66.16 17.365 65.9893 16.7784 65.648C16.1917 65.3067 15.7384 64.8427 15.4184 64.256C15.0984 63.6693 14.9384 63.0187 14.9384 62.304C14.9384 61.6 15.093 60.9547 15.4024 60.368C15.7224 59.7813 16.1757 59.3173 16.7624 58.976C17.349 58.6347 18.0264 58.464 18.7944 58.464C19.5624 58.464 20.2344 58.6347 20.8104 58.976C21.397 59.3173 21.845 59.7813 22.1544 60.368C22.4744 60.9547 22.6344 61.6 22.6344 62.304C22.6344 63.0187 22.4744 63.6693 22.1544 64.256C21.8344 64.8427 21.381 65.3067 20.7944 65.648C20.2184 65.9893 19.5517 66.16 18.7944 66.16ZM18.8424 64.752C19.461 64.752 19.9464 64.5227 20.2984 64.064C20.661 63.6053 20.8424 63.0293 20.8424 62.336C20.8424 61.6427 20.6504 61.0613 20.2664 60.592C19.8824 60.112 19.3757 59.872 18.7464 59.872C18.1384 59.872 17.6477 60.1067 17.2744 60.576C16.9117 61.0453 16.7304 61.632 16.7304 62.336C16.7304 63.0187 16.9277 63.5947 17.3224 64.064C17.717 64.5227 18.2237 64.752 18.8424 64.752ZM24.4798 58.656H26.2078V59.984C26.4424 59.4827 26.7838 59.104 27.2318 58.848C27.6904 58.592 28.2131 58.464 28.7998 58.464C30.1118 58.4747 30.9171 58.928 31.2158 59.824C31.4504 59.408 31.8024 59.0773 32.2718 58.832C32.7411 58.5867 33.2371 58.464 33.7598 58.464C34.5278 58.464 35.1091 58.6133 35.5038 58.912C35.8984 59.2 36.1598 59.616 36.2878 60.16C36.4264 60.6933 36.4958 61.4133 36.4958 62.32V66H34.7518V62.304C34.7518 61.44 34.6611 60.8213 34.4798 60.448C34.3091 60.0747 33.9731 59.888 33.4718 59.888C32.7998 59.888 32.2878 60.1173 31.9358 60.576C31.5944 61.024 31.4237 61.616 31.4237 62.352V66H29.6958V62.048C29.6958 61.4827 29.6744 61.0613 29.6318 60.784C29.5891 60.5067 29.4718 60.288 29.2798 60.128C29.0878 59.968 28.7784 59.888 28.3518 59.888C27.9784 59.888 27.6264 60 27.2958 60.224C26.9758 60.448 26.7144 60.752 26.5118 61.136C26.3198 61.5093 26.2238 61.9147 26.2238 62.352V66H24.4798V58.656ZM38.7305 58.656H40.3945V60.016C40.9812 58.9813 41.8985 58.464 43.1465 58.464C44.1812 58.464 45.0185 58.7947 45.6585 59.456C46.2985 60.1067 46.6185 61.0507 46.6185 62.288C46.6185 63.056 46.4585 63.7333 46.1385 64.32C45.8292 64.9067 45.4025 65.36 44.8585 65.68C44.3252 66 43.7278 66.16 43.0665 66.16C42.4478 66.16 41.9092 66.0533 41.4505 65.84C41.0025 65.616 40.6505 65.3013 40.3945 64.896L40.4105 69.888H38.7305V58.656ZM42.6665 64.704C43.3598 64.704 43.8932 64.4853 44.2665 64.048C44.6398 63.6 44.8265 63.0293 44.8265 62.336C44.8265 61.6107 44.6398 61.0347 44.2665 60.608C43.9038 60.1707 43.3705 59.952 42.6665 59.952C42.2825 59.952 41.9198 60.048 41.5785 60.24C41.2478 60.4213 40.9812 60.688 40.7785 61.04C40.5865 61.3813 40.4905 61.7813 40.4905 62.24V62.352C40.4905 62.8107 40.5865 63.2213 40.7785 63.584C40.9812 63.936 41.2478 64.2133 41.5785 64.416C41.9092 64.608 42.2718 64.704 42.6665 64.704ZM49.1041 60.064H47.8081V58.656H49.1041V55.664L50.8481 55.28V58.656H52.5441V60.064H50.8481V66H49.1041V60.064ZM56.4765 66.16C55.9645 66.16 55.4312 66.096 54.8765 65.968C54.3325 65.8293 53.9432 65.6693 53.7085 65.488L54.2845 64.128C54.9245 64.576 55.6552 64.8 56.4765 64.8C57.2978 64.8 57.7085 64.56 57.7085 64.08C57.7085 63.8667 57.6232 63.7013 57.4525 63.584C57.2818 63.4667 56.9778 63.328 56.5405 63.168L55.9325 62.944C55.2925 62.688 54.7858 62.384 54.4125 62.032C54.0392 61.6693 53.8525 61.1947 53.8525 60.608C53.8525 59.936 54.1138 59.4133 54.6365 59.04C55.1698 58.656 55.8792 58.464 56.7645 58.464C57.2018 58.464 57.6285 58.512 58.0445 58.608C58.4712 58.704 58.7965 58.8267 59.0205 58.976L58.3965 60.352C58.2578 60.2133 58.0338 60.096 57.7245 60C57.4258 59.8933 57.0898 59.84 56.7165 59.84C55.9592 59.84 55.5805 60.0693 55.5805 60.528C55.5805 60.784 55.6818 60.9813 55.8845 61.12C56.0872 61.248 56.4178 61.392 56.8765 61.552C56.9192 61.5627 57.0845 61.6213 57.3725 61.728C58.0552 61.9947 58.5618 62.2987 58.8925 62.64C59.2232 62.9813 59.3885 63.4187 59.3885 63.952C59.3885 64.6773 59.1112 65.2267 58.5565 65.6C58.0125 65.9733 57.3192 66.16 56.4765 66.16Z" fill="black"/>
</svg>
